:FULLY-SPECIFIED
:FORCE-ALL-JOINTS-BE-3DOF
:DEGREES
307
root 9.85991 16.6238 6.54955 6.01383 4.63649 2.96763
lfemur 9.51242 6.16203 -24.4308
ltibia 11.5316 -0 0
lfoot -9.38239 0.708395 -0.404299
ltoes -9.74131 0 0
rfemur -38.9727 0.360965 16.4343
rtibia 44.102 -0 0
rfoot -13.8664 -6.34485 0.440805
rtoes -21.755 0 0
lowerback -6.47871 -3.95358 -4.70126
upperback -0.709105 -5.00637 2.19534
thorax 3.49365 -2.57465 4.40917
lowerneck -20.4083 -4.26995 -12.244
upperneck 21.8524 -5.26867 12.2661
head 11.1329 -1.96571 5.76825
lclavicle 3.5334e-14 -1.90833e-14 0
lhumerus -17.9903 -27.2729 92.5293
lradius 31.8929 -0 0
lwrist 5.402 0 0
lhand -11.8732 -24.7228 -0.00846634
lfingers 7.12502 -0 0
lthumb 14.1758 4.719 -0.0206082
rclavicle 3.5334e-14 -1.90833e-14 0
rhumerus -48.4541 6.85152 -82.8239
rradius 35.8693 -0 0
rwrist -19.3766 0 0
rhand -29.0248 -23.0137 -0.0114634
rfingers 7.12502 -0 0
rthumb -2.37566 -52.9791 -0.0111189
308
root 9.84942 16.611 6.71398 6.05133 4.84763 2.95575
lfemur 10.3246 6.18155 -24.1591
ltibia 11.0074 -0 0
lfoot -8.86365 0.494011 -0.40624
ltoes -9.99688 0 0
rfemur -39.1447 0.401677 16.4492
rtibia 43.9326 -0 0
rfoot -13.4892 -6.02369 0.442919
rtoes -21.6376 0 0
lowerback -6.54374 -3.98628 -4.7169
upperback -0.739633 -5.04626 2.20031
thorax 3.50464 -2.59424 4.41534
lowerneck -20.3358 -4.29692 -12.285
upperneck 21.801 -5.31241 12.3208
head 11.1094 -1.98466 5.78707
lclavicle 3.5334e-14 -1.90833e-14 0
lhumerus -18.312 -27.7275 92.8998
lradius 32.2034 -0 0
lwrist 5.51664 0 0
lhand -11.6477 -24.7331 -0.00850687
lfingers 7.12502 -0 0
lthumb 14.3931 4.69299 -0.0207068
rclavicle 3.5334e-14 -1.90833e-14 0
rhumerus -48.5286 6.81307 -82.8212
rradius 35.5982 -0 0
rwrist -19.1782 0 0
rhand -28.9886 -23.1005 -0.0115182
rfingers 7.12502 -0 0
rthumb -2.34069 -53.0662 -0.0111721
309
root 9.83893 16.5982 6.87842 6.08879 5.05877 2.944
lfemur 11.137 6.19723 -23.8871
ltibia 10.4833 -0 0
lfoot -8.34492 0.279619 -0.40624
ltoes -10.2524 0 0
rfemur -39.3168 0.442434 16.4639
rtibia 43.7632 -0 0
rfoot -13.1119 -5.70253 0.442919
rtoes -21.5203 0 0
lowerback -6.60875 -4.01899 -4.73251
upperback -0.770166 -5.08616 2.2053
thorax 3.51562 -2.61382 4.4215
lowerneck -20.2631 -4.32383 -12.3261
upperneck 21.7496 -5.35609 12.3756
head 11.0859 -2.00359 5.8059
lclavicle 3.5334e-14 -1.90833e-14 0
lhumerus -18.6384 -28.1803 93.2748
lradius 32.5139 -0 0
lwrist 5.63128 0 0
lhand -11.4221 -24.7434 -0.00850687
lfingers 7.12502 -0 0
lthumb 14.6103 4.66697 -0.0207068
rclavicle 3.5334e-14 -1.90833e-14 0
rhumerus -48.6031 6.77462 -82.8184
rradius 35.3272 -0 0
rwrist -18.9799 0 0
rhand -28.9524 -23.1873 -0.0115182
rfingers 7.12502 -0 0
rthumb -2.30571 -53.1534 -0.0111721
310
root 9.82844 16.5854 7.04285 6.12621 5.26992 2.93239
lfemur 11.9494 6.20908 -23.6149
ltibia 9.95911 -0 0
lfoot -7.82618 0.0652345 -0.404299
ltoes -10.508 0 0
rfemur -39.4888 0.483235 16.4785
rtibia 43.5938 -0 0
rfoot -12.7346 -5.38138 0.440805
rtoes -21.4029 0 0
lowerback -6.67377 -4.05173 -4.74808
upperback -0.800704 -5.12605 2.21031
thorax 3.5266 -2.63341 4.42766
lowerneck -20.1905 -4.35069 -12.3672
upperneck 21.6981 -5.39973 12.4305
head 11.0624 -2.02253 5.82474
lclavicle 3.5334e-14 -1.90833e-14 0
lhumerus -18.9695 -28.6311 93.6543
lradius 32.8244 -0 0
lwrist 5.74592 0 0
lhand -11.1966 -24.7537 -0.00846634
lfingers 7.12502 -0 0
lthumb 14.8276 4.64096 -0.0206082
rclavicle 3.5334e-14 -1.90833e-14 0
rhumerus -48.6776 6.73618 -82.8156
rradius 35.0561 -0 0
rwrist -18.7815 0 0
rhand -28.9162 -23.2741 -0.0114634
rfingers 7.12502 -0 0
rthumb -2.27074 -53.2405 -0.0111189
311
root 9.81795 16.5725 7.20729 6.16361 5.48108 2.92091
lfemur 12.7619 6.2171 -23.3426
ltibia 9.43494 -0 0
lfoot -7.30746 -0.149123 -0.400418
ltoes -10.7636 0 0
rfemur -39.6608 0.524079 16.4929
rtibia 43.4245 -0 0
rfoot -12.3574 -5.06025 0.436576
rtoes -21.2855 0 0
lowerback -6.73877 -4.08448 -4.76362
upperback -0.831248 -5.16594 2.21534
thorax 3.53758 -2.653 4.43382
lowerneck -20.1179 -4.3775 -12.4084
upperneck 21.6466 -5.44332 12.4853
head 11.0389 -2.04145 5.84359
lclavicle 3.5334e-14 -1.90833e-14 0
lhumerus -19.3055 -29.08 94.0385
lradius 33.1349 -0 0
lwrist 5.86056 0 0
lhand -10.9711 -24.764 -0.00838528
lfingers 7.12502 -0 0
lthumb 15.0449 4.61495 -0.0204109
rclavicle 3.5334e-14 -1.90833e-14 0
rhumerus -48.7522 6.69775 -82.8127
rradius 34.7851 -0 0
rwrist -18.5832 0 0
rhand -28.88 -23.3609 -0.0113537
rfingers 7.12502 -0 0
rthumb -2.23577 -53.3277 -0.0110125
